<mxfile host="app.diagrams.net" modified="2024-09-15T16:32:32.254Z" agent="Mozilla/5.0 (Windows NT 10.0; Win64; x64; rv:130.0) Gecko/20100101 Firefox/130.0" etag="OGUxaBpe1RYUcOj6Ri-W" version="24.2.5" type="google">
  <diagram name="Page-1" id="E7klTguP2m4DwWMrJybg">
    <mxGraphModel grid="1" page="1" gridSize="10" guides="1" tooltips="1" connect="1" arrows="1" fold="1" pageScale="1" pageWidth="850" pageHeight="1100" math="0" shadow="0">
      <root>
        <mxCell id="0" />
        <mxCell id="1" parent="0" />
        <mxCell id="7ZYgXBun6DmsdDPZlZQs-7" value="" style="ellipse;whiteSpace=wrap;html=1;" vertex="1" parent="1">
          <mxGeometry x="240" y="245" width="80" height="60" as="geometry" />
        </mxCell>
        <mxCell id="7ZYgXBun6DmsdDPZlZQs-8" value="&lt;font size=&quot;1&quot;&gt;&lt;b style=&quot;font-size: 16px;&quot;&gt;A&lt;/b&gt;&lt;/font&gt;" style="text;html=1;align=center;verticalAlign=middle;whiteSpace=wrap;rounded=0;" vertex="1" parent="1">
          <mxGeometry x="250" y="260" width="60" height="30" as="geometry" />
        </mxCell>
        <mxCell id="7ZYgXBun6DmsdDPZlZQs-10" value="" style="ellipse;whiteSpace=wrap;html=1;" vertex="1" parent="1">
          <mxGeometry x="380" y="245" width="80" height="60" as="geometry" />
        </mxCell>
        <mxCell id="7ZYgXBun6DmsdDPZlZQs-64" style="edgeStyle=orthogonalEdgeStyle;rounded=0;orthogonalLoop=1;jettySize=auto;html=1;entryX=1;entryY=0.5;entryDx=0;entryDy=0;" edge="1" parent="1" source="7ZYgXBun6DmsdDPZlZQs-11" target="7ZYgXBun6DmsdDPZlZQs-8">
          <mxGeometry relative="1" as="geometry" />
        </mxCell>
        <mxCell id="7ZYgXBun6DmsdDPZlZQs-11" value="&lt;font size=&quot;1&quot;&gt;&lt;b style=&quot;font-size: 16px;&quot;&gt;B&lt;/b&gt;&lt;/font&gt;" style="text;html=1;align=center;verticalAlign=middle;whiteSpace=wrap;rounded=0;" vertex="1" parent="1">
          <mxGeometry x="390" y="260" width="60" height="30" as="geometry" />
        </mxCell>
        <mxCell id="7ZYgXBun6DmsdDPZlZQs-60" style="edgeStyle=orthogonalEdgeStyle;rounded=0;orthogonalLoop=1;jettySize=auto;html=1;exitX=0.5;exitY=1;exitDx=0;exitDy=0;entryX=0.5;entryY=0;entryDx=0;entryDy=0;" edge="1" parent="1" source="7ZYgXBun6DmsdDPZlZQs-13" target="7ZYgXBun6DmsdDPZlZQs-23">
          <mxGeometry relative="1" as="geometry" />
        </mxCell>
        <mxCell id="7ZYgXBun6DmsdDPZlZQs-17" value="" style="ellipse;whiteSpace=wrap;html=1;" vertex="1" parent="1">
          <mxGeometry x="550" y="80" width="80" height="60" as="geometry" />
        </mxCell>
        <mxCell id="7ZYgXBun6DmsdDPZlZQs-62" style="edgeStyle=orthogonalEdgeStyle;rounded=0;orthogonalLoop=1;jettySize=auto;html=1;entryX=0.5;entryY=0;entryDx=0;entryDy=0;" edge="1" parent="1" source="7ZYgXBun6DmsdDPZlZQs-18" target="7ZYgXBun6DmsdDPZlZQs-7">
          <mxGeometry relative="1" as="geometry" />
        </mxCell>
        <mxCell id="7ZYgXBun6DmsdDPZlZQs-18" value="&lt;font size=&quot;1&quot;&gt;&lt;b style=&quot;font-size: 16px;&quot;&gt;M&lt;/b&gt;&lt;/font&gt;" style="text;html=1;align=center;verticalAlign=middle;whiteSpace=wrap;rounded=0;" vertex="1" parent="1">
          <mxGeometry x="560" y="95" width="60" height="30" as="geometry" />
        </mxCell>
        <mxCell id="7ZYgXBun6DmsdDPZlZQs-19" value="" style="ellipse;whiteSpace=wrap;html=1;" vertex="1" parent="1">
          <mxGeometry x="20" y="290" width="80" height="60" as="geometry" />
        </mxCell>
        <mxCell id="7ZYgXBun6DmsdDPZlZQs-20" value="&lt;font size=&quot;1&quot;&gt;&lt;b style=&quot;font-size: 16px;&quot;&gt;I&lt;/b&gt;&lt;/font&gt;" style="text;html=1;align=center;verticalAlign=middle;whiteSpace=wrap;rounded=0;" vertex="1" parent="1">
          <mxGeometry x="30" y="305" width="60" height="30" as="geometry" />
        </mxCell>
        <mxCell id="7ZYgXBun6DmsdDPZlZQs-21" value="" style="ellipse;whiteSpace=wrap;html=1;" vertex="1" parent="1">
          <mxGeometry x="20" y="150" width="80" height="60" as="geometry" />
        </mxCell>
        <mxCell id="7ZYgXBun6DmsdDPZlZQs-67" style="edgeStyle=orthogonalEdgeStyle;rounded=0;orthogonalLoop=1;jettySize=auto;html=1;exitX=0.5;exitY=1;exitDx=0;exitDy=0;entryX=0.5;entryY=0;entryDx=0;entryDy=0;" edge="1" parent="1" source="7ZYgXBun6DmsdDPZlZQs-22" target="7ZYgXBun6DmsdDPZlZQs-19">
          <mxGeometry relative="1" as="geometry" />
        </mxCell>
        <mxCell id="7ZYgXBun6DmsdDPZlZQs-22" value="&lt;font size=&quot;1&quot;&gt;&lt;b style=&quot;font-size: 16px;&quot;&gt;K&lt;/b&gt;&lt;/font&gt;" style="text;html=1;align=center;verticalAlign=middle;whiteSpace=wrap;rounded=0;" vertex="1" parent="1">
          <mxGeometry x="30" y="170" width="60" height="30" as="geometry" />
        </mxCell>
        <mxCell id="7ZYgXBun6DmsdDPZlZQs-23" value="" style="ellipse;whiteSpace=wrap;html=1;" vertex="1" parent="1">
          <mxGeometry x="300" y="610" width="80" height="60" as="geometry" />
        </mxCell>
        <mxCell id="7ZYgXBun6DmsdDPZlZQs-63" style="edgeStyle=orthogonalEdgeStyle;rounded=0;orthogonalLoop=1;jettySize=auto;html=1;entryX=0.5;entryY=1;entryDx=0;entryDy=0;" edge="1" parent="1" source="7ZYgXBun6DmsdDPZlZQs-24" target="7ZYgXBun6DmsdDPZlZQs-25">
          <mxGeometry relative="1" as="geometry" />
        </mxCell>
        <mxCell id="7ZYgXBun6DmsdDPZlZQs-24" value="&lt;font size=&quot;1&quot;&gt;&lt;b style=&quot;font-size: 16px;&quot;&gt;N&lt;/b&gt;&lt;/font&gt;" style="text;html=1;align=center;verticalAlign=middle;whiteSpace=wrap;rounded=0;" vertex="1" parent="1">
          <mxGeometry x="310" y="630" width="60" height="25" as="geometry" />
        </mxCell>
        <mxCell id="7ZYgXBun6DmsdDPZlZQs-66" style="edgeStyle=orthogonalEdgeStyle;rounded=0;orthogonalLoop=1;jettySize=auto;html=1;exitX=0;exitY=0.5;exitDx=0;exitDy=0;entryX=0.5;entryY=0;entryDx=0;entryDy=0;" edge="1" parent="1" source="7ZYgXBun6DmsdDPZlZQs-27" target="7ZYgXBun6DmsdDPZlZQs-13">
          <mxGeometry relative="1" as="geometry" />
        </mxCell>
        <mxCell id="7ZYgXBun6DmsdDPZlZQs-55" style="edgeStyle=orthogonalEdgeStyle;rounded=0;orthogonalLoop=1;jettySize=auto;html=1;exitX=0.5;exitY=1;exitDx=0;exitDy=0;entryX=0.5;entryY=0;entryDx=0;entryDy=0;" edge="1" parent="1" source="7ZYgXBun6DmsdDPZlZQs-29" target="7ZYgXBun6DmsdDPZlZQs-35">
          <mxGeometry relative="1" as="geometry" />
        </mxCell>
        <mxCell id="7ZYgXBun6DmsdDPZlZQs-29" value="" style="ellipse;whiteSpace=wrap;html=1;" vertex="1" parent="1">
          <mxGeometry x="550" y="150" width="80" height="60" as="geometry" />
        </mxCell>
        <mxCell id="7ZYgXBun6DmsdDPZlZQs-30" value="&lt;font size=&quot;1&quot;&gt;&lt;b style=&quot;font-size: 16px;&quot;&gt;A&lt;/b&gt;&lt;/font&gt;" style="text;html=1;align=center;verticalAlign=middle;whiteSpace=wrap;rounded=0;" vertex="1" parent="1">
          <mxGeometry x="750" y="130" width="60" height="30" as="geometry" />
        </mxCell>
        <mxCell id="7ZYgXBun6DmsdDPZlZQs-53" style="edgeStyle=orthogonalEdgeStyle;rounded=0;orthogonalLoop=1;jettySize=auto;html=1;exitX=0.5;exitY=1;exitDx=0;exitDy=0;entryX=1;entryY=0.5;entryDx=0;entryDy=0;" edge="1" parent="1" source="7ZYgXBun6DmsdDPZlZQs-31" target="7ZYgXBun6DmsdDPZlZQs-29">
          <mxGeometry relative="1" as="geometry" />
        </mxCell>
        <mxCell id="7ZYgXBun6DmsdDPZlZQs-54" style="edgeStyle=orthogonalEdgeStyle;rounded=0;orthogonalLoop=1;jettySize=auto;html=1;exitX=0.5;exitY=1;exitDx=0;exitDy=0;entryX=0.5;entryY=1;entryDx=0;entryDy=0;" edge="1" parent="1" source="7ZYgXBun6DmsdDPZlZQs-31" target="7ZYgXBun6DmsdDPZlZQs-27">
          <mxGeometry relative="1" as="geometry" />
        </mxCell>
        <mxCell id="7ZYgXBun6DmsdDPZlZQs-31" value="" style="ellipse;whiteSpace=wrap;html=1;" vertex="1" parent="1">
          <mxGeometry x="750" y="125" width="80" height="60" as="geometry" />
        </mxCell>
        <mxCell id="7ZYgXBun6DmsdDPZlZQs-32" value="&lt;font size=&quot;1&quot;&gt;&lt;b style=&quot;font-size: 16px;&quot;&gt;E&lt;/b&gt;&lt;/font&gt;" style="text;html=1;align=center;verticalAlign=middle;whiteSpace=wrap;rounded=0;" vertex="1" parent="1">
          <mxGeometry x="760" y="140" width="60" height="30" as="geometry" />
        </mxCell>
        <mxCell id="7ZYgXBun6DmsdDPZlZQs-59" style="edgeStyle=orthogonalEdgeStyle;rounded=0;orthogonalLoop=1;jettySize=auto;html=1;exitX=1;exitY=0.5;exitDx=0;exitDy=0;entryX=0.5;entryY=1;entryDx=0;entryDy=0;" edge="1" parent="1" source="7ZYgXBun6DmsdDPZlZQs-33" target="7ZYgXBun6DmsdDPZlZQs-25">
          <mxGeometry relative="1" as="geometry" />
        </mxCell>
        <mxCell id="7ZYgXBun6DmsdDPZlZQs-33" value="" style="ellipse;whiteSpace=wrap;html=1;" vertex="1" parent="1">
          <mxGeometry x="90" y="550" width="80" height="60" as="geometry" />
        </mxCell>
        <mxCell id="7ZYgXBun6DmsdDPZlZQs-34" value="&lt;font size=&quot;1&quot;&gt;&lt;b style=&quot;font-size: 16px;&quot;&gt;H&lt;/b&gt;&lt;/font&gt;" style="text;html=1;align=center;verticalAlign=middle;whiteSpace=wrap;rounded=0;" vertex="1" parent="1">
          <mxGeometry x="100" y="565" width="60" height="30" as="geometry" />
        </mxCell>
        <mxCell id="7ZYgXBun6DmsdDPZlZQs-65" style="edgeStyle=orthogonalEdgeStyle;rounded=0;orthogonalLoop=1;jettySize=auto;html=1;exitX=0;exitY=0.5;exitDx=0;exitDy=0;entryX=0.5;entryY=1;entryDx=0;entryDy=0;" edge="1" parent="1" source="7ZYgXBun6DmsdDPZlZQs-35" target="7ZYgXBun6DmsdDPZlZQs-39">
          <mxGeometry relative="1" as="geometry" />
        </mxCell>
        <mxCell id="7ZYgXBun6DmsdDPZlZQs-35" value="" style="ellipse;whiteSpace=wrap;html=1;" vertex="1" parent="1">
          <mxGeometry x="430" y="365" width="80" height="60" as="geometry" />
        </mxCell>
        <mxCell id="7ZYgXBun6DmsdDPZlZQs-36" value="&lt;font size=&quot;1&quot;&gt;&lt;b style=&quot;font-size: 16px;&quot;&gt;G&lt;/b&gt;&lt;/font&gt;" style="text;html=1;align=center;verticalAlign=middle;whiteSpace=wrap;rounded=0;" vertex="1" parent="1">
          <mxGeometry x="440" y="380" width="60" height="30" as="geometry" />
        </mxCell>
        <mxCell id="7ZYgXBun6DmsdDPZlZQs-37" value="" style="ellipse;whiteSpace=wrap;html=1;" vertex="1" parent="1">
          <mxGeometry x="220" y="370" width="80" height="60" as="geometry" />
        </mxCell>
        <mxCell id="7ZYgXBun6DmsdDPZlZQs-38" value="&lt;font size=&quot;1&quot;&gt;&lt;b style=&quot;font-size: 16px;&quot;&gt;D&lt;/b&gt;&lt;/font&gt;" style="text;html=1;align=center;verticalAlign=middle;whiteSpace=wrap;rounded=0;" vertex="1" parent="1">
          <mxGeometry x="230" y="385" width="60" height="30" as="geometry" />
        </mxCell>
        <mxCell id="7ZYgXBun6DmsdDPZlZQs-39" value="" style="ellipse;whiteSpace=wrap;html=1;" vertex="1" parent="1">
          <mxGeometry x="310" y="305" width="80" height="60" as="geometry" />
        </mxCell>
        <mxCell id="7ZYgXBun6DmsdDPZlZQs-40" value="&lt;font size=&quot;1&quot;&gt;&lt;b style=&quot;font-size: 16px;&quot;&gt;C&lt;/b&gt;&lt;/font&gt;" style="text;html=1;align=center;verticalAlign=middle;whiteSpace=wrap;rounded=0;" vertex="1" parent="1">
          <mxGeometry x="320" y="320" width="60" height="30" as="geometry" />
        </mxCell>
        <mxCell id="7ZYgXBun6DmsdDPZlZQs-41" value="" style="endArrow=classic;html=1;rounded=0;exitX=1;exitY=0.5;exitDx=0;exitDy=0;entryX=0;entryY=0.5;entryDx=0;entryDy=0;" edge="1" parent="1" source="7ZYgXBun6DmsdDPZlZQs-7" target="7ZYgXBun6DmsdDPZlZQs-10">
          <mxGeometry width="50" height="50" relative="1" as="geometry">
            <mxPoint x="400" y="420" as="sourcePoint" />
            <mxPoint x="450" y="370" as="targetPoint" />
          </mxGeometry>
        </mxCell>
        <mxCell id="7ZYgXBun6DmsdDPZlZQs-42" value="" style="swimlane;startSize=0;strokeColor=#FF3333;strokeWidth=4;" vertex="1" parent="1">
          <mxGeometry x="200" y="230" width="320" height="230" as="geometry" />
        </mxCell>
        <mxCell id="7ZYgXBun6DmsdDPZlZQs-45" value="" style="endArrow=classic;html=1;rounded=0;entryX=1;entryY=0.5;entryDx=0;entryDy=0;exitX=0.5;exitY=1;exitDx=0;exitDy=0;" edge="1" parent="1" source="7ZYgXBun6DmsdDPZlZQs-10" target="7ZYgXBun6DmsdDPZlZQs-39">
          <mxGeometry width="50" height="50" relative="1" as="geometry">
            <mxPoint x="330" y="620" as="sourcePoint" />
            <mxPoint x="450" y="370" as="targetPoint" />
          </mxGeometry>
        </mxCell>
        <mxCell id="7ZYgXBun6DmsdDPZlZQs-46" value="" style="endArrow=classic;html=1;rounded=0;exitX=0.5;exitY=1;exitDx=0;exitDy=0;entryX=0.5;entryY=0;entryDx=0;entryDy=0;" edge="1" parent="1" source="7ZYgXBun6DmsdDPZlZQs-39" target="7ZYgXBun6DmsdDPZlZQs-37">
          <mxGeometry width="50" height="50" relative="1" as="geometry">
            <mxPoint x="400" y="420" as="sourcePoint" />
            <mxPoint x="450" y="370" as="targetPoint" />
          </mxGeometry>
        </mxCell>
        <mxCell id="7ZYgXBun6DmsdDPZlZQs-47" value="" style="endArrow=classic;html=1;rounded=0;exitX=0.5;exitY=1;exitDx=0;exitDy=0;entryX=0.5;entryY=0;entryDx=0;entryDy=0;" edge="1" parent="1" source="7ZYgXBun6DmsdDPZlZQs-39" target="7ZYgXBun6DmsdDPZlZQs-35">
          <mxGeometry width="50" height="50" relative="1" as="geometry">
            <mxPoint x="400" y="420" as="sourcePoint" />
            <mxPoint x="450" y="370" as="targetPoint" />
          </mxGeometry>
        </mxCell>
        <mxCell id="7ZYgXBun6DmsdDPZlZQs-48" value="" style="endArrow=classic;html=1;rounded=0;exitX=0.5;exitY=0;exitDx=0;exitDy=0;entryX=0.5;entryY=1;entryDx=0;entryDy=0;" edge="1" parent="1" source="7ZYgXBun6DmsdDPZlZQs-37" target="7ZYgXBun6DmsdDPZlZQs-7">
          <mxGeometry width="50" height="50" relative="1" as="geometry">
            <mxPoint x="400" y="420" as="sourcePoint" />
            <mxPoint x="450" y="370" as="targetPoint" />
          </mxGeometry>
        </mxCell>
        <mxCell id="7ZYgXBun6DmsdDPZlZQs-50" value="" style="endArrow=classic;html=1;rounded=0;exitX=0.5;exitY=1;exitDx=0;exitDy=0;entryX=0.5;entryY=0;entryDx=0;entryDy=0;" edge="1" parent="1" source="7ZYgXBun6DmsdDPZlZQs-37" target="7ZYgXBun6DmsdDPZlZQs-33">
          <mxGeometry width="50" height="50" relative="1" as="geometry">
            <mxPoint x="400" y="420" as="sourcePoint" />
            <mxPoint x="450" y="370" as="targetPoint" />
          </mxGeometry>
        </mxCell>
        <mxCell id="7ZYgXBun6DmsdDPZlZQs-52" value="&lt;font size=&quot;1&quot;&gt;&lt;b style=&quot;font-size: 16px;&quot;&gt;F&lt;/b&gt;&lt;/font&gt;" style="text;html=1;align=center;verticalAlign=middle;whiteSpace=wrap;rounded=0;" vertex="1" parent="1">
          <mxGeometry x="560" y="165" width="60" height="30" as="geometry" />
        </mxCell>
        <mxCell id="7ZYgXBun6DmsdDPZlZQs-71" value="" style="swimlane;startSize=0;strokeWidth=5;" vertex="1" parent="1">
          <mxGeometry x="10" y="135" width="100" height="250" as="geometry" />
        </mxCell>
        <mxCell id="7ZYgXBun6DmsdDPZlZQs-72" value="" style="swimlane;startSize=0;strokeColor=#3333FF;strokeWidth=4;" vertex="1" parent="1">
          <mxGeometry x="530" y="60" width="200" height="170" as="geometry" />
        </mxCell>
        <mxCell id="7ZYgXBun6DmsdDPZlZQs-27" value="" style="ellipse;whiteSpace=wrap;html=1;" vertex="1" parent="7ZYgXBun6DmsdDPZlZQs-72">
          <mxGeometry x="110" y="40" width="80" height="60" as="geometry" />
        </mxCell>
        <mxCell id="7ZYgXBun6DmsdDPZlZQs-28" value="&lt;font size=&quot;1&quot;&gt;&lt;b style=&quot;font-size: 16px;&quot;&gt;O&lt;/b&gt;&lt;/font&gt;" style="text;html=1;align=center;verticalAlign=middle;whiteSpace=wrap;rounded=0;" vertex="1" parent="7ZYgXBun6DmsdDPZlZQs-72">
          <mxGeometry x="120" y="55" width="60" height="30" as="geometry" />
        </mxCell>
        <mxCell id="7ZYgXBun6DmsdDPZlZQs-73" value="" style="swimlane;startSize=0;strokeColor=#B266FF;strokeWidth=4;" vertex="1" parent="1">
          <mxGeometry x="545" y="455" width="110" height="110" as="geometry" />
        </mxCell>
        <mxCell id="7ZYgXBun6DmsdDPZlZQs-13" value="" style="ellipse;whiteSpace=wrap;html=1;" vertex="1" parent="7ZYgXBun6DmsdDPZlZQs-73">
          <mxGeometry x="15" y="25" width="80" height="60" as="geometry" />
        </mxCell>
        <mxCell id="7ZYgXBun6DmsdDPZlZQs-14" value="&lt;font size=&quot;1&quot;&gt;&lt;b style=&quot;font-size: 16px;&quot;&gt;J&lt;/b&gt;&lt;/font&gt;" style="text;html=1;align=center;verticalAlign=middle;whiteSpace=wrap;rounded=0;" vertex="1" parent="7ZYgXBun6DmsdDPZlZQs-73">
          <mxGeometry x="40" y="40" width="30" height="30" as="geometry" />
        </mxCell>
        <mxCell id="7ZYgXBun6DmsdDPZlZQs-74" value="" style="swimlane;startSize=0;strokeColor=#009900;strokeWidth=4;" vertex="1" parent="1">
          <mxGeometry x="60" y="520" width="340" height="160" as="geometry" />
        </mxCell>
        <mxCell id="7ZYgXBun6DmsdDPZlZQs-25" value="" style="ellipse;whiteSpace=wrap;html=1;" vertex="1" parent="7ZYgXBun6DmsdDPZlZQs-74">
          <mxGeometry x="140" y="50" width="80" height="60" as="geometry" />
        </mxCell>
        <mxCell id="7ZYgXBun6DmsdDPZlZQs-26" value="&lt;font size=&quot;1&quot;&gt;&lt;b style=&quot;font-size: 16px;&quot;&gt;L&lt;/b&gt;&lt;/font&gt;" style="text;html=1;align=center;verticalAlign=middle;whiteSpace=wrap;rounded=0;" vertex="1" parent="7ZYgXBun6DmsdDPZlZQs-74">
          <mxGeometry x="150" y="65" width="60" height="30" as="geometry" />
        </mxCell>
        <mxCell id="7ZYgXBun6DmsdDPZlZQs-75" value="" style="swimlane;startSize=0;strokeColor=#FF8000;strokeWidth=5;" vertex="1" parent="1">
          <mxGeometry x="745" y="120" width="90" height="90" as="geometry" />
        </mxCell>
        <mxCell id="7ZYgXBun6DmsdDPZlZQs-76" value="&lt;div style=&quot;font-size: 16px;&quot;&gt;&lt;font style=&quot;font-size: 16px;&quot;&gt;&lt;b&gt;&lt;font style=&quot;font-size: 16px;&quot; color=&quot;#ff0000&quot;&gt;SCC&lt;/font&gt;&lt;/b&gt;&lt;/font&gt;&lt;/div&gt;&lt;div style=&quot;font-size: 16px;&quot;&gt;&lt;font style=&quot;font-size: 16px;&quot;&gt;&lt;b&gt;&lt;font style=&quot;font-size: 16px;&quot; color=&quot;#3333ff&quot;&gt;In&lt;/font&gt;&lt;/b&gt;&lt;/font&gt;&lt;/div&gt;&lt;div style=&quot;font-size: 16px;&quot;&gt;&lt;font style=&quot;font-size: 16px;&quot;&gt;&lt;b&gt;&lt;font style=&quot;font-size: 16px;&quot; color=&quot;#9933ff&quot;&gt;Tube&lt;/font&gt;&lt;/b&gt;&lt;/font&gt;&lt;/div&gt;&lt;div style=&quot;font-size: 16px;&quot;&gt;&lt;font style=&quot;font-size: 16px;&quot;&gt;&lt;b&gt;&lt;font style=&quot;font-size: 16px;&quot; color=&quot;#00cc00&quot;&gt;Out&lt;/font&gt;&lt;/b&gt;&lt;/font&gt;&lt;/div&gt;&lt;div style=&quot;font-size: 16px;&quot;&gt;&lt;font style=&quot;font-size: 16px;&quot;&gt;&lt;b&gt;&lt;font style=&quot;font-size: 16px;&quot; color=&quot;#ff8000&quot;&gt;Tendril&lt;/font&gt;&lt;/b&gt;&lt;/font&gt;&lt;/div&gt;&lt;div style=&quot;font-size: 16px;&quot;&gt;&lt;font style=&quot;font-size: 16px;&quot;&gt;&lt;b&gt;Disconnected&lt;/b&gt;&lt;/font&gt;&lt;br&gt;&lt;/div&gt;" style="text;html=1;align=center;verticalAlign=middle;whiteSpace=wrap;rounded=0;" vertex="1" parent="1">
          <mxGeometry x="560" y="650" width="60" height="30" as="geometry" />
        </mxCell>
      </root>
    </mxGraphModel>
  </diagram>
</mxfile>
